<?xml version="1.0" encoding="UTF-8" standalone="no"?>
<svg
   xmlns:dc="http://purl.org/dc/elements/1.1/"
   xmlns:cc="http://creativecommons.org/ns#"
   xmlns:rdf="http://www.w3.org/1999/02/22-rdf-syntax-ns#"
   xmlns:svg="http://www.w3.org/2000/svg"
   xmlns="http://www.w3.org/2000/svg"
   xmlns:sodipodi="http://sodipodi.sourceforge.net/DTD/sodipodi-0.dtd"
   xmlns:inkscape="http://www.inkscape.org/namespaces/inkscape"
   inkscape:version="1.0 (4035a4fb49, 2020-05-01)"
   sodipodi:docname="ico-info-contato.svg"
   id="svg8"
   version="1.1"
   viewBox="0 0 120.35854 128.35289"
   height="128.35289mm"
   width="120.35854mm">
  <defs
     id="defs2" />
  <sodipodi:namedview
     inkscape:window-maximized="0"
     inkscape:window-y="0"
     inkscape:window-x="0"
     inkscape:window-height="728"
     inkscape:window-width="1344"
     showgrid="false"
     inkscape:document-rotation="0"
     inkscape:current-layer="g38"
     inkscape:document-units="mm"
     inkscape:cy="314.36325"
     inkscape:cx="214.03394"
     inkscape:zoom="0.49497475"
     inkscape:pageshadow="2"
     inkscape:pageopacity="0.0"
     borderopacity="1.0"
     bordercolor="#666666"
     pagecolor="#ffffff"
     id="base" />
  <metadata
     id="metadata5">
    <rdf:RDF>
      <cc:Work
         rdf:about="">
        <dc:format>image/svg+xml</dc:format>
        <dc:type
           rdf:resource="http://purl.org/dc/dcmitype/StillImage" />
        <dc:title></dc:title>
      </cc:Work>
    </rdf:RDF>
  </metadata>
  <g
     transform="translate(-40.362394,-34.326586)"
     id="layer1"
     inkscape:groupmode="layer"
     inkscape:label="Layer 1">
    <g
       transform="matrix(0.26458333,0,0,0.26458333,32.808334,25.242096)"
       id="g38">
      <path
         transform="translate(28.550778,34.335081)"
         d="M 192.32812 0.64257812 C 179.51542 0.64257812 169.20117 10.95681 169.20117 23.769531 L 169.20117 105.19727 C 169.20117 118.00999 179.51542 128.32617 192.32812 128.32617 L 263.0625 128.32617 C 275.87522 128.32617 286.18945 118.00999 286.18945 105.19727 L 286.18945 23.769531 C 286.18945 10.95681 275.87522 0.64257813 263.0625 0.64257812 L 192.32812 0.64257812 z M 317.625 74.404297 C 311.54883 74.389677 304.7943 74.426031 297.6543 74.494141 L 297.6543 110.93359 C 297.6543 126.04346 285.49072 138.20898 270.38086 138.20898 L 184.51758 138.20898 C 169.40771 138.20898 157.24414 126.04346 157.24414 110.93359 L 157.24414 74.652344 C 106.34962 75.005642 68.135096 74.623047 31.498047 74.623047 C 14.047457 74.623047 0 88.670526 0 106.12109 L 0 453.61523 C 0 471.06582 14.047457 485.11328 31.498047 485.11328 L 423.40039 485.11328 C 440.85098 485.11328 454.89844 471.06582 454.89844 453.61523 L 454.89844 106.12109 C 454.89844 88.670526 440.85098 74.623047 423.40039 74.623047 L 390.86523 74.623047 C 363.80439 75.181039 345.24328 74.470751 317.625 74.404297 z M 55.339844 178.71484 L 399.55859 178.71484 C 412.40838 178.71484 422.75391 189.06034 422.75391 201.91016 L 422.75391 431.2793 C 422.75391 444.12913 412.40838 454.47266 399.55859 454.47266 L 55.339844 454.47266 C 42.490044 454.47266 32.144531 444.12913 32.144531 431.2793 L 32.144531 201.91016 C 32.144531 189.06034 42.490044 178.71484 55.339844 178.71484 z M 227.53711 203.52344 C 199.0114 203.52544 175.88647 226.64809 175.88477 255.17383 C 175.88677 283.69956 199.0114 306.82445 227.53711 306.82617 C 256.06282 306.82417 279.18576 283.69956 279.1875 255.17383 C 279.1855 226.64809 256.06282 203.52516 227.53711 203.52344 z M 179.60547 297.90625 C 152.61779 306.7223 133.20508 331.99894 133.20508 362.00586 C 133.20508 399.38414 127.0612 426.90852 164.43945 426.97266 L 289.38477 427.1875 C 326.76298 427.2507 321.86914 399.3841 321.86914 362.00586 C 321.86914 331.99619 302.45834 306.72007 275.4668 297.90625 C 264.18068 313.03464 246.41155 321.9438 227.53711 321.94727 C 208.66145 321.94756 190.89443 313.03401 179.60547 297.90625 z "
         style="fill:#557cf2;fill-opacity:1;stroke-width:3.49719;stroke-linecap:round;stroke-linejoin:round"
         id="rect1277" />
      <g
         transform="matrix(3.7795276,0,0,3.7795276,590.81319,223.50047)"
         id="layer2"
         inkscape:label="Layer 2" />
    </g>
  </g>
</svg>
