<?xml version="1.0" encoding="UTF-8" standalone="no"?>
<svg
   xmlns:dc="http://purl.org/dc/elements/1.1/"
   xmlns:cc="http://creativecommons.org/ns#"
   xmlns:rdf="http://www.w3.org/1999/02/22-rdf-syntax-ns#"
   xmlns:svg="http://www.w3.org/2000/svg"
   xmlns="http://www.w3.org/2000/svg"
   xmlns:sodipodi="http://sodipodi.sourceforge.net/DTD/sodipodi-0.dtd"
   xmlns:inkscape="http://www.inkscape.org/namespaces/inkscape"
   inkscape:version="1.0 (4035a4fb49, 2020-05-01)"
   sodipodi:docname="ico-vol-desligado.svg"
   xml:space="preserve"
   viewBox="0 0 365.65099 394.38818"
   height="394.38818"
   width="365.651"
   y="0px"
   x="0px"
   id="Capa_1"
   version="1.1"><metadata
   id="metadata5863"><rdf:RDF><cc:Work
       rdf:about=""><dc:format>image/svg+xml</dc:format><dc:type
         rdf:resource="http://purl.org/dc/dcmitype/StillImage" /><dc:title></dc:title></cc:Work></rdf:RDF></metadata><defs
   id="defs5861">
	
</defs><sodipodi:namedview
   inkscape:current-layer="Capa_1"
   inkscape:window-maximized="1"
   inkscape:window-y="-8"
   inkscape:window-x="-8"
   inkscape:cy="219.9539"
   inkscape:cx="75.416047"
   inkscape:zoom="0.80073274"
   showgrid="false"
   id="namedview5859"
   inkscape:window-height="705"
   inkscape:window-width="1360"
   inkscape:pageshadow="2"
   inkscape:pageopacity="0"
   guidetolerance="10"
   gridtolerance="10"
   objecttolerance="10"
   borderopacity="1"
   bordercolor="#666666"
   pagecolor="#ffffff" />
<path
   d="m 200.99805,47.208489 c -4.945,0 -9.23171,1.808781 -12.84571,5.425781 L 152.4375,88.349114 277.69531,246.28857 a 61.506283,61.506283 0 0 0 5.53125,-25.49023 61.506283,61.506283 0 0 0 -61.50586,-61.50586 61.506283,61.506283 0 0 0 -2.45117,0.0488 v -93.8574 c -0.001,-4.948 -1.80497,-9.23361 -5.41797,-12.84961 -3.621,-3.617 -7.90551,-5.425781 -12.85351,-5.425781 z M 128.90234,111.88427 93.078121,147.70849 H 18.277344 c -4.952,0 -9.2355624,1.80883 -12.8515624,5.42383 C 1.8087816,156.75332 0,161.03293 0,165.98193 v 109.63281 c 0,4.948 1.8087816,9.23266 5.4257816,12.84766 3.619,3.617 7.9025624,5.42773 12.8515624,5.42773 h 74.798827 l 95.068359,95.07813 c 3.62,3.61 7.90466,5.41992 12.84766,5.41992 4.955,0 9.23551,-1.80992 12.85351,-5.41992 3.613,-3.617 5.42383,-7.90166 5.42383,-12.84766 v -93.86523 a 61.506283,61.506283 0 0 0 2.45117,0.0488 61.506283,61.506283 0 0 0 35.33594,-11.16407 z"
   style="stroke-width:0;stroke-miterlimit:4;stroke-dasharray:none;fill:#b3b3b3"
   id="path5824" />
<g
   transform="translate(-9.0058594,48.456536)"
   id="g5828">
</g>
<g
   transform="translate(-9.0058594,48.456536)"
   id="g5830">
</g>
<g
   transform="translate(-9.0058594,48.456536)"
   id="g5832">
</g>
<g
   transform="translate(-9.0058594,48.456536)"
   id="g5834">
</g>
<g
   transform="translate(-9.0058594,48.456536)"
   id="g5836">
</g>
<g
   transform="translate(-9.0058594,48.456536)"
   id="g5838">
</g>
<g
   transform="translate(-9.0058594,48.456536)"
   id="g5840">
</g>
<g
   transform="translate(-9.0058594,48.456536)"
   id="g5842">
</g>
<g
   transform="translate(-9.0058594,48.456536)"
   id="g5844">
</g>
<g
   transform="translate(-9.0058594,48.456536)"
   id="g5846">
</g>
<g
   transform="translate(-9.0058594,48.456536)"
   id="g5848">
</g>
<g
   transform="translate(-9.0058594,48.456536)"
   id="g5850">
</g>
<g
   transform="translate(-9.0058594,48.456536)"
   id="g5852">
</g>
<g
   transform="translate(-9.0058594,48.456536)"
   id="g5854">
</g>
<g
   transform="translate(-9.0058594,48.456536)"
   id="g5856">
</g>
<path
   d="m 247.00976,56.438958 v 37.439453 a 150.48938,151.00298 0 0 1 64.32032,123.798829 150.48938,151.00298 0 0 1 -11.26758,57.32813 l 22.12305,27.89453 A 182.33521,182.9575 0 0 0 343.17578,217.67724 182.33521,182.9575 0 0 0 247.00976,56.438958 Z m 36.62305,248.535162 a 150.48938,151.00298 0 0 1 -36.62305,36.5 v 37.4414 a 182.33521,182.9575 0 0 0 57.26954,-48.28515 z"
   style="fill:#b3b3b3;fill-opacity:1;stroke:#263238;stroke-width:0;stroke-linecap:round;stroke-linejoin:round;stroke-miterlimit:4;stroke-dasharray:none;stroke-opacity:0.631373"
   id="path6433" /><path
   style="fill:#b3b3b3;fill-opacity:1;stroke:#000000;stroke-width:0;stroke-linecap:butt;stroke-linejoin:miter;stroke-miterlimit:4;stroke-dasharray:none;stroke-opacity:1"
   d="M 42.19724,18.235129 340.67386,391.64313 365.65099,371.66143 65.427791,6.9774877e-7 Z"
   id="path5870"
   sodipodi:nodetypes="ccccc" /></svg>
