<?xml version="1.0" encoding="UTF-8" standalone="no"?>
<svg
   xmlns:dc="http://purl.org/dc/elements/1.1/"
   xmlns:cc="http://creativecommons.org/ns#"
   xmlns:rdf="http://www.w3.org/1999/02/22-rdf-syntax-ns#"
   xmlns:svg="http://www.w3.org/2000/svg"
   xmlns="http://www.w3.org/2000/svg"
   xmlns:sodipodi="http://sodipodi.sourceforge.net/DTD/sodipodi-0.dtd"
   xmlns:inkscape="http://www.inkscape.org/namespaces/inkscape"
   sodipodi:docname="ico-op-online.svg"
   inkscape:version="1.0 (4035a4fb49, 2020-05-01)"
   id="svg8"
   version="1.1"
   viewBox="0 0 14.402969 14.979709"
   height="14.979709mm"
   width="14.402969mm">
  <defs
     id="defs2" />
  <sodipodi:namedview
     inkscape:guide-bbox="true"
     showguides="true"
     inkscape:window-maximized="0"
     inkscape:window-y="0"
     inkscape:window-x="0"
     inkscape:window-height="728"
     inkscape:window-width="1344"
     showgrid="false"
     inkscape:document-rotation="0"
     inkscape:current-layer="layer1"
     inkscape:document-units="px"
     inkscape:cy="29.481249"
     inkscape:cx="36.850973"
     inkscape:zoom="5.6"
     inkscape:pageshadow="2"
     inkscape:pageopacity="0.0"
     borderopacity="1.0"
     bordercolor="#666666"
     pagecolor="#ffffff"
     id="base" />
  <metadata
     id="metadata5">
    <rdf:RDF>
      <cc:Work
         rdf:about="">
        <dc:format>image/svg+xml</dc:format>
        <dc:type
           rdf:resource="http://purl.org/dc/dcmitype/StillImage" />
        <dc:title></dc:title>
      </cc:Work>
    </rdf:RDF>
  </metadata>
  <g
     transform="translate(-2.7376474,-1.2116303)"
     id="layer1"
     inkscape:groupmode="layer"
     inkscape:label="Layer 1">
    <path
       transform="scale(0.26458332)"
       d="M 32.398438,5.8203125 C 26.978748,5.7811815 21.557697,8.5594034 19.412109,13.990234 19.197402,13.881927 18.959,13.814453 18.701172,13.814453 h -1.121094 c -0.877975,0 -1.583984,0.70601 -1.583984,1.583985 v 0.09375 h -0.378906 c -0.668024,0 -1.205079,0.537055 -1.205079,1.205078 v 8.511718 c 0,0.668025 0.537055,1.205078 1.205079,1.205078 h 0.378906 v 0.171876 c 0,0.877972 0.706009,1.583984 1.583984,1.583984 h 1.121094 c 0.877974,0 1.583984,-0.706012 1.583984,-1.583984 V 15.826172 c 2.262289,-2.620967 4.943799,-7.5611187 11.96875,-7.7382814 6.840101,-0.3941968 10.833287,6.8594684 12.222656,8.3164064 v 9.808594 c 0,0.877974 0.706012,1.58399 1.583985,1.583984 h 1.119141 c 0.877972,0 1.585937,-0.70601 1.585937,-1.583984 v -0.171875 h 0.378906 c 0.668024,0 1.205078,-0.537054 1.205078,-1.205078 v -8.511719 c 0,-0.668024 -0.537054,-1.205078 -1.205078,-1.205078 h -0.378906 v -0.09375 c 0,-0.877975 -0.707965,-1.583985 -1.585937,-1.583985 h -1.119141 c -0.390399,0 -0.742028,0.14463 -1.017578,0.376953 C 42.784153,8.4850735 37.599745,5.8578666 32.398438,5.8203125 Z m 0.07617,4.8515625 c -6.285508,3.8e-4 -11.380475,5.095347 -11.380859,11.380859 3.84e-4,6.285515 5.095351,11.38048 11.380859,11.38086 6.285511,-3.8e-4 11.38047,-5.095345 11.38086,-11.38086 -3.9e-4,-6.285512 -5.095349,-11.380479 -11.38086,-11.380859 z M 21.912109,31.46875 C 15.965499,33.411326 11.6875,38.979914 11.6875,45.591797 c 0,8.236127 -1.353304,14.302271 6.882812,14.316406 l 27.53125,0.04687 c 0.22167,3.71e-4 0.430609,-0.0069 0.638672,-0.01563 a 14.630369,14.630369 0 0 1 -9.089843,-13.542969 14.630369,14.630369 0 0 1 8.6875,-13.367187 c -1.022355,-0.647889 -2.128462,-1.177099 -3.302735,-1.560547 -2.486846,3.33346 -6.401651,5.296113 -10.560547,5.296875 -4.159164,6.7e-5 -8.075021,-1.963542 -10.5625,-5.296875 z"
       style="fill:#557cf2;fill-opacity:1;stroke:#000000;stroke-width:2.48104;stroke-linecap:round;stroke-linejoin:round;stroke-miterlimit:4;stroke-dasharray:none;stroke-opacity:0"
       id="rect1028-9" />
    <circle
       style="fill:#22c38e;fill-opacity:1;stroke-width:4.25345;stroke-linecap:round;stroke-linejoin:round"
       id="path4278"
       cx="13.88324"
       cy="12.343806"
       r="3.2573767" />
  </g>
  <g
     transform="translate(-2.7376474,-1.2116303)"
     inkscape:label="Layer 2"
     id="layer2"
     inkscape:groupmode="layer" />
</svg>
