<?xml version="1.0" encoding="UTF-8" standalone="no"?>
<svg
   xmlns:dc="http://purl.org/dc/elements/1.1/"
   xmlns:cc="http://creativecommons.org/ns#"
   xmlns:rdf="http://www.w3.org/1999/02/22-rdf-syntax-ns#"
   xmlns:svg="http://www.w3.org/2000/svg"
   xmlns="http://www.w3.org/2000/svg"
   xmlns:sodipodi="http://sodipodi.sourceforge.net/DTD/sodipodi-0.dtd"
   xmlns:inkscape="http://www.inkscape.org/namespaces/inkscape"
   sodipodi:docname="ico-etiquerta.svg"
   inkscape:version="1.0 (4035a4fb49, 2020-05-01)"
   id="svg8"
   version="1.1"
   viewBox="0 0 30 25"
   height="25mm"
   width="30mm">
  <defs
     id="defs2" />
  <sodipodi:namedview
     inkscape:window-maximized="0"
     inkscape:window-y="0"
     inkscape:window-x="0"
     inkscape:window-height="728"
     inkscape:window-width="1360"
     showgrid="false"
     inkscape:document-rotation="0"
     inkscape:current-layer="layer1"
     inkscape:document-units="px"
     inkscape:cy="43.839054"
     inkscape:cx="41.123995"
     inkscape:zoom="2.8"
     inkscape:pageshadow="2"
     inkscape:pageopacity="0.0"
     borderopacity="1.0"
     bordercolor="#666666"
     pagecolor="#ffffff"
     id="base" />
  <metadata
     id="metadata5">
    <rdf:RDF>
      <cc:Work
         rdf:about="">
        <dc:format>image/svg+xml</dc:format>
        <dc:type
           rdf:resource="http://purl.org/dc/dcmitype/StillImage" />
        <dc:title></dc:title>
      </cc:Work>
    </rdf:RDF>
  </metadata>
  <g
     id="layer1"
     inkscape:groupmode="layer"
     inkscape:label="Layer 1">
    <path
       sodipodi:nodetypes="ccccccscc"
       d="M 16.896013,0.72902153 14.89163,0.93439273 27.238063,11.862858 c 0,0 0.51262,0.434993 0.312084,1.07971 -0.192185,0.617891 -8.594835,9.807046 -9.310161,10.588697 1.27813,0.896045 1.793978,0.09161 1.793978,0.09161 0,0 9.353257,-10.211263 9.553787,-10.855982 0.200535,-0.644717 -0.312082,-1.07971 -0.312084,-1.07971 z"
       style="fill:#000000;stroke:#000000;stroke-width:0.233633px;stroke-linecap:butt;stroke-linejoin:miter;stroke-opacity:1"
       id="path10" />
    <path
       d="M 13.040268,1.1528509 2.9403353,2.1872575 C 1.5330679,2.3313937 1.3582718,3.9414698 1.3582718,3.9414698 L 0.81564886,12.900788 c 0,0 11.83355514,9.646715 13.30483214,10.853466 1.471274,1.206758 2.057738,0.292453 2.057738,0.292453 0,0 9.353257,-10.211263 9.553787,-10.855984 0.200536,-0.644716 -0.312084,-1.079707 -0.312084,-1.079707 z M 5.4586485,4.0109336 A 1.8408624,1.8408624 0 0 1 7.2994399,5.8517239 1.8408624,1.8408624 0 0 1 5.4586485,7.6925144 1.8408624,1.8408624 0 0 1 3.6178583,5.8517239 1.8408624,1.8408624 0 0 1 5.4586485,4.0109336 Z"
       style="fill:#000000;stroke:#000000;stroke-width:0.233633px;stroke-linecap:butt;stroke-linejoin:miter;stroke-opacity:1"
       id="path10-7" />
  </g>
</svg>
