<?xml version="1.0" encoding="UTF-8" standalone="no"?>
<svg
   xmlns:dc="http://purl.org/dc/elements/1.1/"
   xmlns:cc="http://creativecommons.org/ns#"
   xmlns:rdf="http://www.w3.org/1999/02/22-rdf-syntax-ns#"
   xmlns:svg="http://www.w3.org/2000/svg"
   xmlns="http://www.w3.org/2000/svg"
   xmlns:sodipodi="http://sodipodi.sourceforge.net/DTD/sodipodi-0.dtd"
   xmlns:inkscape="http://www.inkscape.org/namespaces/inkscape"
   version="1.1"
   id="Capa_1"
   x="0px"
   y="0px"
   width="13.336"
   height="28.336"
   viewBox="0 0 13.336002 28.336002"
   xml:space="preserve"
   sodipodi:docname="ico-anexo.svg"
   inkscape:version="1.0 (4035a4fb49, 2020-05-01)"><metadata
   id="metadata1357"><rdf:RDF><cc:Work
       rdf:about=""><dc:format>image/svg+xml</dc:format><dc:type
         rdf:resource="http://purl.org/dc/dcmitype/StillImage" /><dc:title /></cc:Work></rdf:RDF></metadata><defs
   id="defs1355" /><sodipodi:namedview
   inkscape:document-rotation="0"
   pagecolor="#ffffff"
   bordercolor="#666666"
   borderopacity="1"
   objecttolerance="10"
   gridtolerance="10"
   guidetolerance="10"
   inkscape:pageopacity="0"
   inkscape:pageshadow="2"
   inkscape:window-width="1360"
   inkscape:window-height="705"
   id="namedview1353"
   showgrid="false"
   inkscape:zoom="8.0652869"
   inkscape:cx="26.655166"
   inkscape:cy="22.029559"
   inkscape:window-x="-8"
   inkscape:window-y="-8"
   inkscape:window-maximized="1"
   inkscape:current-layer="g1320" />
<g
   id="g1320">
	<path
   d="m 8.5505115,0.39141252 c -2.298805,0 -4.168717,1.86991178 -4.168717,4.16841918 V 16.987028 c 0,0.694836 0.563348,1.258184 1.25848,1.258184 0.694836,0 1.25848,-0.563051 1.25848,-1.258184 V 4.5598317 c 0,-0.9106174 0.740842,-1.6517554 1.651757,-1.6517554 0.91032,0 1.6511615,0.741138 1.6511615,1.6517554 v 4.5640689 7.8631274 5.26959 c 0,1.995166 -1.6226675,3.617537 -3.6175385,3.617537 -1.994869,0 -3.617834,-1.622965 -3.617834,-3.617537 V 9.1239006 c 0,-0.6951324 -0.563347,-1.2584804 -1.25848,-1.2584804 -0.694835,0 -1.25847996,0.563348 -1.25847996,1.2584804 V 22.256618 c 0,3.38276 2.75203496,6.134795 6.13479396,6.134795 3.382761,0 6.1347965,-2.751739 6.1347965,-6.134795 V 16.987028 9.1239006 4.5598317 c 0,-2.2985074 -1.869912,-4.16841918 -4.1684195,-4.16841918 z"
   id="path1318"
   style="stroke-width:0.296811;fill:#557cf2;fill-opacity:1" />
</g>
<g
   id="g1322">
</g>
<g
   id="g1324">
</g>
<g
   id="g1326">
</g>
<g
   id="g1328">
</g>
<g
   id="g1330">
</g>
<g
   id="g1332">
</g>
<g
   id="g1334">
</g>
<g
   id="g1336">
</g>
<g
   id="g1338">
</g>
<g
   id="g1340">
</g>
<g
   id="g1342">
</g>
<g
   id="g1344">
</g>
<g
   id="g1346">
</g>
<g
   id="g1348">
</g>
<g
   id="g1350">
</g>
</svg>
