<?xml version="1.0" encoding="UTF-8" standalone="no"?>
<svg
   xmlns:dc="http://purl.org/dc/elements/1.1/"
   xmlns:cc="http://creativecommons.org/ns#"
   xmlns:rdf="http://www.w3.org/1999/02/22-rdf-syntax-ns#"
   xmlns:svg="http://www.w3.org/2000/svg"
   xmlns="http://www.w3.org/2000/svg"
   xmlns:sodipodi="http://sodipodi.sourceforge.net/DTD/sodipodi-0.dtd"
   xmlns:inkscape="http://www.inkscape.org/namespaces/inkscape"
   width="120.35854mm"
   height="128.35289mm"
   viewBox="0 0 120.35854 128.35289"
   version="1.1"
   id="svg8"
   sodipodi:docname="ico-calendario.svg"
   inkscape:version="1.0 (4035a4fb49, 2020-05-01)">
  <defs
     id="defs2" />
  <sodipodi:namedview
     id="base"
     pagecolor="#ffffff"
     bordercolor="#666666"
     borderopacity="1.0"
     inkscape:pageopacity="0.0"
     inkscape:pageshadow="2"
     inkscape:zoom="0.35"
     inkscape:cx="141.9128"
     inkscape:cy="541.82179"
     inkscape:document-units="mm"
     inkscape:current-layer="g38"
     inkscape:document-rotation="0"
     showgrid="false"
     inkscape:window-width="1344"
     inkscape:window-height="728"
     inkscape:window-x="0"
     inkscape:window-y="0"
     inkscape:window-maximized="0" />
  <metadata
     id="metadata5">
    <rdf:RDF>
      <cc:Work
         rdf:about="">
        <dc:format>image/svg+xml</dc:format>
        <dc:type
           rdf:resource="http://purl.org/dc/dcmitype/StillImage" />
      </cc:Work>
    </rdf:RDF>
  </metadata>
  <g
     inkscape:label="Layer 1"
     inkscape:groupmode="layer"
     id="layer1"
     transform="translate(-40.362394,-34.326586)">
    <g
       id="g38"
       transform="matrix(0.26458333,0,0,0.26458333,32.808334,25.242096)">
      <path
         id="rect1277"
         style="fill:#557cf2;fill-opacity:1;stroke-width:3.49719;stroke-linecap:round;stroke-linejoin:round"
         d="M 322.27148 0 C 311.93006 0 303.60547 8.3245958 303.60547 18.666016 L 303.60547 102.67969 C 303.60547 113.02111 311.93006 121.34766 322.27148 121.34766 L 357.06836 121.34766 C 367.40978 121.34766 375.73438 113.02111 375.73438 102.67969 L 375.73438 18.666016 C 375.73438 8.3245958 367.40978 0 357.06836 0 L 322.27148 0 z M 92.699219 6.890625 C 82.357799 6.890625 74.033203 15.217174 74.033203 25.558594 L 74.033203 109.57227 C 74.033203 119.91369 82.357799 128.23828 92.699219 128.23828 L 126.15039 128.23828 C 136.49181 128.23828 144.81836 119.91369 144.81836 109.57227 L 144.81836 25.558594 C 144.81836 15.217174 136.49181 6.890625 126.15039 6.890625 L 92.699219 6.890625 z M 31.498047 74.623047 C 14.047457 74.623047 0 88.670514 0 106.12109 L 0 453.61523 C 0 471.06582 14.047457 485.11328 31.498047 485.11328 L 423.40039 485.11328 C 440.85098 485.11328 454.89844 471.06582 454.89844 453.61523 L 454.89844 106.12109 C 454.89844 88.670514 440.85098 74.623047 423.40039 74.623047 L 390.86523 74.623047 L 390.86523 114.85938 C 390.86523 126.4925 381.50032 135.85742 369.86719 135.85742 L 307.33594 135.85742 C 295.70281 135.85742 285.76036 126.47816 286.33789 114.85938 L 286.33789 74.623047 L 161.89844 74.623047 L 161.89844 122.66602 C 161.89844 134.29914 152.53351 143.66406 140.90039 143.66406 L 78.369141 143.66406 C 66.736021 143.66406 57.371094 134.29914 57.371094 122.66602 L 57.371094 74.623047 L 31.498047 74.623047 z M 55.339844 178.71484 L 399.55859 178.71484 C 412.40838 178.71484 422.75391 189.06034 422.75391 201.91016 L 422.75391 431.2793 C 422.75391 444.12913 412.40838 454.47266 399.55859 454.47266 L 55.339844 454.47266 C 42.490044 454.47266 32.144531 444.12913 32.144531 431.2793 L 32.144531 201.91016 C 32.144531 189.06034 42.490044 178.71484 55.339844 178.71484 z M 285.46875 233.71094 C 285.11901 233.71123 284.93164 233.71875 284.93164 233.71875 L 99.162109 233.72266 C 99.165575 233.72691 143.80273 288.63477 143.80273 288.63477 L 145.57422 347.68359 C 143.80272 392.56158 195.17578 385.47656 195.17578 385.47656 C 195.17578 385.47656 269.57849 388.42908 302.64648 383.70508 C 335.71448 378.98109 330.40039 335.875 330.40039 335.875 C 330.40039 335.875 328.35977 328.80392 330.40039 283.91016 C 332.61477 235.19391 290.71492 233.70661 285.46875 233.71094 z "
         transform="translate(28.550778,34.335081)" />
    </g>
  </g>
</svg>
