<?xml version="1.0" encoding="UTF-8" standalone="no"?>
<svg
   xmlns:dc="http://purl.org/dc/elements/1.1/"
   xmlns:cc="http://creativecommons.org/ns#"
   xmlns:rdf="http://www.w3.org/1999/02/22-rdf-syntax-ns#"
   xmlns:svg="http://www.w3.org/2000/svg"
   xmlns="http://www.w3.org/2000/svg"
   xmlns:sodipodi="http://sodipodi.sourceforge.net/DTD/sodipodi-0.dtd"
   xmlns:inkscape="http://www.inkscape.org/namespaces/inkscape"
   width="26mm"
   height="17mm"
   viewBox="0 0 26 17"
   version="1.1"
   id="svg8"
   inkscape:version="1.0 (4035a4fb49, 2020-05-01)"
   sodipodi:docname="ico-addcontato.svg">
  <defs
     id="defs2" />
  <sodipodi:namedview
     id="base"
     pagecolor="#ffffff"
     bordercolor="#666666"
     borderopacity="1.0"
     inkscape:pageopacity="0.0"
     inkscape:pageshadow="2"
     inkscape:zoom="3.959798"
     inkscape:cx="25.346533"
     inkscape:cy="58.898813"
     inkscape:document-units="px"
     inkscape:current-layer="layer1"
     inkscape:document-rotation="0"
     showgrid="false"
     inkscape:window-width="1344"
     inkscape:window-height="728"
     inkscape:window-x="0"
     inkscape:window-y="0"
     inkscape:window-maximized="0"
     showguides="true"
     inkscape:guide-bbox="true" />
  <metadata
     id="metadata5">
    <rdf:RDF>
      <cc:Work
         rdf:about="">
        <dc:format>image/svg+xml</dc:format>
        <dc:type
           rdf:resource="http://purl.org/dc/dcmitype/StillImage" />
        <dc:title />
      </cc:Work>
    </rdf:RDF>
  </metadata>
  <g
     inkscape:label="Layer 1"
     inkscape:groupmode="layer"
     id="layer1">
    <path
       id="rect1028-9"
       style="fill:#557cf2;stroke:#000000;stroke-width:2.96123;stroke-linecap:round;stroke-linejoin:round;stroke-miterlimit:4;stroke-dasharray:none;stroke-opacity:0;fill-opacity:1"
       d="M 48.923828 1.6367188 A 13.584805 13.584814 0 0 0 35.339844 15.220703 A 13.584805 13.584814 0 0 0 48.923828 28.804688 A 13.584805 13.584814 0 0 0 62.507812 15.220703 A 13.584805 13.584814 0 0 0 48.923828 1.6367188 z M 77.865234 9.7207031 A 10.295001 10.295009 0 0 0 67.570312 20.015625 A 10.295001 10.295009 0 0 0 77.865234 30.310547 A 10.295001 10.295009 0 0 0 88.160156 20.015625 A 10.295001 10.295009 0 0 0 77.865234 9.7207031 z M 19.894531 10.384766 A 10.295001 10.295009 0 0 0 9.5996094 20.679688 A 10.295001 10.295009 0 0 0 19.894531 30.974609 A 10.295001 10.295009 0 0 0 30.189453 20.679688 A 10.295001 10.295009 0 0 0 19.894531 10.384766 z M 36.318359 26.458984 C 29.220813 28.777536 24.115234 35.424825 24.115234 43.316406 C 24.115234 53.146595 22.499905 60.385476 32.330078 60.402344 L 65.189453 60.458984 C 75.019626 60.475614 73.732422 53.146587 73.732422 43.316406 C 73.732422 35.4241 68.627858 28.77695 61.529297 26.458984 C 58.561139 30.437633 53.887655 32.780339 48.923828 32.78125 C 43.959679 32.781329 39.287274 30.437466 36.318359 26.458984 z M 87.417969 28.533203 C 85.168602 31.548355 81.626979 33.323527 77.865234 33.324219 C 77.055947 33.32423 76.260619 33.227402 75.482422 33.068359 C 76.895062 35.614949 77.708984 38.542758 77.708984 41.673828 C 77.708984 46.779467 78.043467 51.19771 77 54.275391 L 90.191406 54.298828 C 97.641025 54.311301 96.666016 48.756267 96.666016 41.306641 C 96.666016 35.325596 92.797487 30.289833 87.417969 28.533203 z M 10.341797 29.195312 C 4.9622767 30.951939 1.09375 35.989662 1.09375 41.970703 C 1.09375 49.42033 0.11873285 54.975363 7.5683594 54.962891 L 20.761719 54.939453 C 19.718219 51.86178 20.050781 47.443522 20.050781 42.337891 C 20.050781 39.206817 20.864701 36.279004 22.277344 33.732422 C 21.499145 33.891464 20.703818 33.9883 19.894531 33.988281 C 16.132785 33.98759 12.591162 32.210465 10.341797 29.195312 z "
       transform="scale(0.26458334)" />
  </g>
  <g
     inkscape:groupmode="layer"
     id="layer2"
     inkscape:label="Layer 2" />
</svg>
