<?xml version="1.0" encoding="UTF-8" standalone="no"?>
<svg
   xmlns:dc="http://purl.org/dc/elements/1.1/"
   xmlns:cc="http://creativecommons.org/ns#"
   xmlns:rdf="http://www.w3.org/1999/02/22-rdf-syntax-ns#"
   xmlns:svg="http://www.w3.org/2000/svg"
   xmlns="http://www.w3.org/2000/svg"
   xmlns:sodipodi="http://sodipodi.sourceforge.net/DTD/sodipodi-0.dtd"
   xmlns:inkscape="http://www.inkscape.org/namespaces/inkscape"
   inkscape:version="1.0 (4035a4fb49, 2020-05-01)"
   height="24.548853"
   width="19.125845"
   sodipodi:docname="ico-lixeira.svg"
   xml:space="preserve"
   viewBox="0 0 19.125846 24.548854"
   y="0px"
   x="0px"
   id="Capa_1"
   version="1.1"><metadata
   id="metadata1270"><rdf:RDF><cc:Work
       rdf:about=""><dc:format>image/svg+xml</dc:format><dc:type
         rdf:resource="http://purl.org/dc/dcmitype/StillImage" /><dc:title /></cc:Work></rdf:RDF></metadata><defs
   id="defs1268">
	
	
	
	
</defs><sodipodi:namedview
   inkscape:current-layer="Capa_1"
   inkscape:window-maximized="1"
   inkscape:window-y="-8"
   inkscape:window-x="-8"
   inkscape:cy="12.733066"
   inkscape:cx="-4.4734391"
   inkscape:zoom="11.124103"
   showgrid="false"
   id="namedview1266"
   inkscape:window-height="705"
   inkscape:window-width="1360"
   inkscape:pageshadow="2"
   inkscape:pageopacity="0"
   guidetolerance="10"
   gridtolerance="10"
   objecttolerance="10"
   borderopacity="1"
   bordercolor="#666666"
   pagecolor="#ffffff"
   inkscape:document-rotation="0" />

<g
   id="g1235"
   transform="translate(-1.0757695,-0.95662221)">
</g>
<g
   id="g1237"
   transform="translate(-1.0757695,-0.95662221)">
</g>
<g
   id="g1239"
   transform="translate(-1.0757695,-0.95662221)">
</g>
<g
   id="g1241"
   transform="translate(-1.0757695,-0.95662221)">
</g>
<g
   id="g1243"
   transform="translate(-1.0757695,-0.95662221)">
</g>
<g
   id="g1245"
   transform="translate(-1.0757695,-0.95662221)">
</g>
<g
   id="g1247"
   transform="translate(-1.0757695,-0.95662221)">
</g>
<g
   id="g1249"
   transform="translate(-1.0757695,-0.95662221)">
</g>
<g
   id="g1251"
   transform="translate(-1.0757695,-0.95662221)">
</g>
<g
   id="g1253"
   transform="translate(-1.0757695,-0.95662221)">
</g>
<g
   id="g1255"
   transform="translate(-1.0757695,-0.95662221)">
</g>
<g
   id="g1257"
   transform="translate(-1.0757695,-0.95662221)">
</g>
<g
   id="g1259"
   transform="translate(-1.0757695,-0.95662221)">
</g>
<g
   id="g1261"
   transform="translate(-1.0757695,-0.95662221)">
</g>
<g
   id="g1263"
   transform="translate(-1.0757695,-0.95662221)">
</g>
<path
   id="path4051"
   style="fill:#557cf2;stroke:#557cf2;stroke-width:0.4;stroke-linecap:butt;stroke-linejoin:miter;stroke-miterlimit:4;stroke-dasharray:none;stroke-opacity:1;fill-opacity:1"
   d="M 10.048828 0.20117188 C 8.7678261 0.20117175 7.3284829 0.212865 6.6992188 0.2578125 C 5.4406899 0.3477074 5.3964844 1.3359375 5.3964844 1.3359375 L 5.4414062 3.5390625 L 1.4414062 3.5839844 C -0.08680668 3.539037 0.22851562 4.796875 0.22851562 4.796875 L 0.22851562 6.1894531 C 0.49820032 6.728823 0.8125 6.6835936 0.8125 6.6835938 L 1.9355469 6.7285156 L 1.9804688 23.224609 C 2.1602584 24.258405 3.1484375 24.349609 3.1484375 24.349609 C 3.1484375 24.349609 15.015062 24.259766 16.003906 24.259766 C 16.992747 24.259766 17.037109 23.044922 17.037109 23.044922 L 16.947266 6.6386719 L 18.251953 6.6386719 C 18.881215 6.4139347 18.925781 5.9199219 18.925781 5.9199219 C 18.925781 5.9199219 18.925809 5.4713167 18.880859 4.3925781 C 18.835912 3.3138393 17.892578 3.4023437 17.892578 3.4023438 L 13.621094 3.3574219 C 13.621094 3.3574219 13.576144 2.3248068 13.621094 1.2910156 C 13.666042 0.25722411 12.453125 0.21289065 12.453125 0.21289062 C 12.453125 0.21289062 11.32983 0.20117197 10.048828 0.20117188 z M 17.097656 5.4785156 C 17.329165 5.4784829 17.515422 5.6649752 17.515625 5.8964844 L 17.515625 6.046875 C 17.515828 6.2783842 17.329165 6.464811 17.097656 6.4648438 L 1.7773438 6.4667969 C 1.5458345 6.4668296 1.3595778 6.2803373 1.359375 6.0488281 L 1.359375 5.8984375 C 1.3591722 5.6669283 1.5458345 5.4805015 1.7773438 5.4804688 L 17.097656 5.4785156 z M 13.666016 9.1660156 C 14.18331 9.1660156 14.601565 9.5823166 14.601562 10.099609 L 14.601562 20.527344 C 14.601562 21.044638 14.18331 21.462891 13.666016 21.462891 C 13.148722 21.462891 12.732422 21.044638 12.732422 20.527344 L 12.732422 10.099609 C 12.732422 9.5823166 13.148722 9.1660156 13.666016 9.1660156 z M 9.171875 9.2558594 C 9.6891693 9.2558594 10.105469 9.6721586 10.105469 10.189453 L 10.105469 20.617188 C 10.105469 21.134481 9.6891693 21.552734 9.171875 21.552734 C 8.6545808 21.552734 8.2382814 21.134481 8.2382812 20.617188 L 8.2382812 10.189453 C 8.2382812 9.6721586 8.6545808 9.2558594 9.171875 9.2558594 z M 4.453125 9.3007812 C 4.9704193 9.3007812 5.3867186 9.717081 5.3867188 10.234375 L 5.3867188 20.664062 C 5.3867188 21.181356 4.9704193 21.597656 4.453125 21.597656 C 3.9358307 21.597656 3.5195313 21.181356 3.5195312 20.664062 L 3.5195312 10.234375 C 3.5195312 9.717081 3.9358307 9.3007812 4.453125 9.3007812 z " /></svg>
