<?xml version="1.0" encoding="UTF-8" standalone="no"?>
<svg
   xmlns:dc="http://purl.org/dc/elements/1.1/"
   xmlns:cc="http://creativecommons.org/ns#"
   xmlns:rdf="http://www.w3.org/1999/02/22-rdf-syntax-ns#"
   xmlns:svg="http://www.w3.org/2000/svg"
   xmlns="http://www.w3.org/2000/svg"
   xmlns:sodipodi="http://sodipodi.sourceforge.net/DTD/sodipodi-0.dtd"
   xmlns:inkscape="http://www.inkscape.org/namespaces/inkscape"
   sodipodi:docname="seta-left-branco.svg"
   inkscape:version="1.0 (4035a4fb49, 2020-05-01)"
   id="svg4391"
   version="1.1"
   viewBox="0 0 135.36829 119.87645"
   height="119.87645mm"
   width="135.36829mm">
  <defs
     id="defs4385" />
  <sodipodi:namedview
     inkscape:window-maximized="0"
     inkscape:window-y="0"
     inkscape:window-x="0"
     inkscape:window-height="728"
     inkscape:window-width="1360"
     showgrid="false"
     inkscape:document-rotation="0"
     inkscape:current-layer="layer1"
     inkscape:document-units="mm"
     inkscape:cy="272.04773"
     inkscape:cx="748.20442"
     inkscape:zoom="0.35"
     inkscape:pageshadow="2"
     inkscape:pageopacity="0.0"
     borderopacity="1.0"
     bordercolor="#666666"
     pagecolor="#ffffff"
     id="base" />
  <metadata
     id="metadata4388">
    <rdf:RDF>
      <cc:Work
         rdf:about="">
        <dc:format>image/svg+xml</dc:format>
        <dc:type
           rdf:resource="http://purl.org/dc/dcmitype/StillImage" />
        <dc:title></dc:title>
      </cc:Work>
    </rdf:RDF>
  </metadata>
  <g
     transform="translate(-38.098627,-86.338484)"
     id="layer1"
     inkscape:groupmode="layer"
     inkscape:label="Layer 1">
    <path
       sodipodi:nodetypes="cscscscsssccssccsccc"
       id="path4446"
       d="m 93.032207,132.25387 h 45.243743 c 7.47078,0 15.32322,-0.6985 22.75417,0.0452 6.82845,0.68316 12.13881,6.67412 12.425,13.44851 0.30235,7.15698 -5.24924,13.78902 -12.425,14.50684 -7.43095,0.74348 -15.28313,0.0452 -22.75417,0.0452 H 93.032207 c 7.571283,8.82151 14.682263,13.91947 21.087033,21.43125 9.00244,10.55846 -0.82021,27.20102 -14.472453,24.10672 -6.85826,-1.55443 -11.66362,-8.25368 -16.40416,-12.99422 l -31.48542,-31.48541 -10.31875,-10.31875 c -1.24433,-1.24434 -3.33983,-2.80961 -3.33983,-4.7625 0,-1.95289 2.0955,-3.51817 3.33983,-4.7625 l 10.31875,-10.31875 31.48542,-31.485416 c 4.74054,-4.7406 9.5459,-11.43971 16.40416,-12.99419 13.652243,-3.09441 23.474893,13.548096 14.472453,24.106686 -6.40477,7.51179 -14.271704,14.12164 -21.087033,21.43125 z"
       style="fill:#ffffff;stroke:none;stroke-width:0.264583" />
  </g>
</svg>
