<?xml version="1.0" encoding="UTF-8" standalone="no"?>
<svg
   xmlns:dc="http://purl.org/dc/elements/1.1/"
   xmlns:cc="http://creativecommons.org/ns#"
   xmlns:rdf="http://www.w3.org/1999/02/22-rdf-syntax-ns#"
   xmlns:svg="http://www.w3.org/2000/svg"
   xmlns="http://www.w3.org/2000/svg"
   xmlns:sodipodi="http://sodipodi.sourceforge.net/DTD/sodipodi-0.dtd"
   xmlns:inkscape="http://www.inkscape.org/namespaces/inkscape"
   sodipodi:docname="setor.svg"
   inkscape:version="1.0 (4035a4fb49, 2020-05-01)"
   id="svg8"
   version="1.1"
   viewBox="0 0 24.077083 8.7312507"
   height="33"
   width="91">
  <defs
     id="defs2">
    <mask
       id="mask4540"
       maskUnits="userSpaceOnUse">
      <path
         id="path4542"
         style="fill:#557cf2;fill-opacity:1;stroke:#000000;stroke-width:0.656923;stroke-linecap:round;stroke-linejoin:round;stroke-miterlimit:4;stroke-dasharray:none;stroke-opacity:0"
         d="M 10.258647,3.4347759 C 8.5943919,3.4348766 7.2453614,4.7839071 7.2452598,6.4481664 7.2453614,8.1124267 8.5943919,9.4614564 10.25865,9.4615575 11.922909,9.4614564 13.271939,8.1124267 13.272041,6.4481664 13.271939,4.7839071 11.922909,3.4348766 10.25865,3.4347759 Z M 4.7547005,14.694967 c 0.094563,2.322582 -0.5474505,1.772716 1.8224108,1.776459 l 7.2896457,0.01241 c 2.444162,-0.01535 2.211726,0.385218 2.263534,-1.292084 0.04748,-1.956181 -0.668144,-3.295883 -2.20096,-4.248587 C 9.959209,9.1897296 4.9548626,10.586716 4.7547005,14.694963 Z"
         sodipodi:nodetypes="cccccccccccc" />
    </mask>
  </defs>
  <sodipodi:namedview
     units="px"
     inkscape:guide-bbox="true"
     showguides="true"
     inkscape:window-maximized="0"
     inkscape:window-y="0"
     inkscape:window-x="0"
     inkscape:window-height="728"
     inkscape:window-width="1344"
     showgrid="false"
     inkscape:document-rotation="0"
     inkscape:current-layer="layer1"
     inkscape:document-units="px"
     inkscape:cy="12.809787"
     inkscape:cx="58.448568"
     inkscape:zoom="5.6"
     inkscape:pageshadow="2"
     inkscape:pageopacity="0.0"
     borderopacity="1.0"
     bordercolor="#666666"
     pagecolor="#ffffff"
     id="base" />
  <metadata
     id="metadata5">
    <rdf:RDF>
      <cc:Work
         rdf:about="">
        <dc:format>image/svg+xml</dc:format>
        <dc:type
           rdf:resource="http://purl.org/dc/dcmitype/StillImage" />
        <dc:title></dc:title>
      </cc:Work>
    </rdf:RDF>
  </metadata>
  <g
     style="display:inline"
     transform="translate(-4.7336406,-10.95844)"
     inkscape:label="Layer 2"
     id="layer2"
     inkscape:groupmode="layer" />
  <g
     style="display:inline"
     transform="translate(-4.7336406,-10.95844)"
     id="layer1"
     inkscape:groupmode="layer"
     inkscape:label="Layer 1">
    <path
       transform="matrix(0.26458334,0,0,0.26458334,4.7336406,10.95844)"
       d="M 18.289062 0.26757812 C 9.2651176 0.26757813 2 7.5326976 2 16.556641 C 2 25.580587 9.2651176 32.845703 18.289062 32.845703 L 73.59375 32.845703 C 82.617697 32.845703 89.882812 25.580587 89.882812 16.556641 C 89.882812 7.5326976 82.617697 0.26757813 73.59375 0.26757812 L 18.289062 0.26757812 z M 57.054688 9.7128906 C 59.160638 9.7128906 60.817516 10.329141 62.023438 11.558594 C 63.229359 12.78216 63.832031 14.448713 63.832031 16.560547 C 63.832031 18.654733 63.23129 20.319354 62.03125 21.554688 C 60.831212 22.784138 59.172402 23.400391 57.054688 23.400391 C 54.942854 23.400391 53.287928 22.784138 52.087891 21.554688 C 50.887853 20.319354 50.287109 18.654733 50.287109 16.560547 C 50.287109 14.448713 50.887853 12.78216 52.087891 11.558594 C 53.287928 10.329141 54.942854 9.7128906 57.054688 9.7128906 z M 18.777344 9.7480469 C 19.642078 9.7480469 20.494736 9.8333236 21.335938 10.003906 C 22.183025 10.168618 22.915538 10.377911 23.533203 10.630859 L 23.533203 13.658203 L 23.171875 13.658203 C 22.642446 13.234672 21.993269 12.881973 21.222656 12.599609 C 20.457927 12.311365 19.675026 12.166016 18.875 12.166016 C 18.592638 12.166016 18.309706 12.187344 18.027344 12.228516 C 17.750864 12.263816 17.483441 12.333576 17.224609 12.439453 C 16.99519 12.527692 16.797523 12.663346 16.632812 12.845703 C 16.468101 13.022182 16.386719 13.225661 16.386719 13.455078 C 16.386719 13.802147 16.518489 14.069569 16.783203 14.257812 C 17.047917 14.440162 17.547885 14.608764 18.283203 14.761719 C 18.765572 14.861725 19.226778 14.958624 19.667969 15.052734 C 20.115044 15.146845 20.595641 15.274731 21.107422 15.439453 C 22.113336 15.768874 22.853591 16.220408 23.330078 16.791016 C 23.812447 17.355737 24.054688 18.090181 24.054688 18.996094 C 24.054688 20.290252 23.504333 21.342505 22.404297 22.154297 C 21.310144 22.960206 19.821866 23.363281 17.939453 23.363281 C 16.851183 23.363281 15.901635 23.270277 15.089844 23.082031 C 14.283935 22.887915 13.52817 22.643742 12.822266 22.349609 L 12.822266 19.199219 L 13.191406 19.199219 C 13.891429 19.75806 14.674329 20.188272 15.539062 20.488281 C 16.409679 20.78829 17.244896 20.9375 18.044922 20.9375 C 18.25081 20.9375 18.522117 20.920066 18.857422 20.884766 C 19.192727 20.849465 19.465963 20.791328 19.677734 20.708984 C 19.936565 20.603107 20.147788 20.469385 20.3125 20.310547 C 20.483083 20.151731 20.568359 19.917255 20.568359 19.605469 C 20.568359 19.317224 20.444321 19.069172 20.197266 18.863281 C 19.956081 18.651502 19.601463 18.490664 19.130859 18.378906 C 18.636725 18.261257 18.113506 18.152738 17.560547 18.052734 C 17.01347 17.94685 16.497993 17.813125 16.015625 17.654297 C 14.909707 17.295461 14.113251 16.811003 13.625 16.199219 C 13.142632 15.581551 12.900391 14.81609 12.900391 13.904297 C 12.900391 12.680728 13.448816 11.684675 14.542969 10.914062 C 15.643004 10.137569 17.053759 9.7480469 18.777344 9.7480469 z M 26.382812 9.9863281 L 35.886719 9.9863281 L 35.886719 12.529297 L 29.753906 12.529297 L 29.753906 14.796875 L 35.445312 14.796875 L 35.445312 17.337891 L 29.753906 17.337891 L 29.753906 20.583984 L 35.886719 20.583984 L 35.886719 23.125 L 26.382812 23.125 L 26.382812 9.9863281 z M 37.421875 9.9863281 L 49.017578 9.9863281 L 49.017578 12.529297 L 44.914062 12.529297 L 44.914062 23.125 L 41.525391 23.125 L 41.525391 12.529297 L 37.421875 12.529297 L 37.421875 9.9863281 z M 66.408203 9.9863281 L 72.091797 9.9863281 C 72.868293 9.9863281 73.534909 10.030901 74.09375 10.119141 C 74.652593 10.20738 75.175813 10.399232 75.664062 10.693359 C 76.158195 10.987485 76.549646 11.36924 76.837891 11.839844 C 77.132018 12.304564 77.279297 12.889798 77.279297 13.595703 C 77.279297 14.566324 77.052566 15.358919 76.599609 15.970703 C 76.152537 16.582485 75.511102 17.090198 74.675781 17.496094 L 79.0625 23.125 L 74.923828 23.125 L 71.341797 18.308594 L 69.779297 18.308594 L 69.779297 23.125 L 66.408203 23.125 L 66.408203 9.9863281 z M 57.064453 12.193359 C 56.635028 12.193359 56.228068 12.26893 55.845703 12.421875 C 55.469219 12.57482 55.122344 12.828688 54.804688 13.181641 C 54.51056 13.511064 54.270272 13.966456 54.082031 14.548828 C 53.899682 15.125317 53.808594 15.795817 53.808594 16.560547 C 53.808594 17.342924 53.895787 18.011493 54.072266 18.564453 C 54.254615 19.11153 54.492974 19.557228 54.787109 19.904297 C 55.081237 20.251368 55.426183 20.509119 55.820312 20.673828 C 56.214442 20.83854 56.629145 20.919922 57.064453 20.919922 C 57.499761 20.919922 57.914462 20.83854 58.308594 20.673828 C 58.702723 20.503245 59.045716 20.239681 59.339844 19.886719 C 59.669265 19.486706 59.913435 19.017756 60.072266 18.476562 C 60.231081 17.929486 60.310547 17.288054 60.310547 16.552734 C 60.310547 15.764474 60.219459 15.093973 60.037109 14.541016 C 59.85476 13.988056 59.616401 13.540404 59.322266 13.199219 C 59.022254 12.846266 58.675379 12.590471 58.28125 12.431641 C 57.893002 12.272825 57.487997 12.193359 57.064453 12.193359 z M 69.779297 12.404297 L 69.779297 15.943359 L 70.820312 15.943359 C 71.361506 15.943359 71.814968 15.91622 72.179688 15.863281 C 72.544404 15.810343 72.850589 15.690199 73.097656 15.501953 C 73.332944 15.319604 73.503478 15.120007 73.609375 14.902344 C 73.721148 14.678797 73.775391 14.382309 73.775391 14.011719 C 73.775391 13.682295 73.709526 13.399363 73.574219 13.164062 C 73.438912 12.928774 73.206367 12.742734 72.876953 12.607422 C 72.647536 12.513312 72.380114 12.457116 72.074219 12.439453 C 71.768326 12.41602 71.411755 12.404297 71.005859 12.404297 L 69.779297 12.404297 z "
       style="fill:#557cf2;fill-opacity:1;stroke:#263238;stroke-width:0;stroke-linecap:round;stroke-linejoin:round;stroke-miterlimit:4;stroke-dasharray:none;stroke-opacity:0.631373;paint-order:normal"
       id="rect6489" />
    <g
       style="font-style:normal;font-weight:normal;font-size:4.78133px;line-height:1.25;font-family:sans-serif;fill:#ffffff;fill-opacity:1;stroke:none;stroke-width:0.119534"
       id="text6493"
       aria-label="SETOR" />
  </g>
</svg>
